<svg width="28" height="28" viewBox="0 0 28 28" fill="none" xmlns="http://www.w3.org/2000/svg">
<path d="M8.40008 0.666992H19.6001C23.8668 0.666992 27.3334 4.13366 27.3334 8.40033V19.6003C27.3334 21.6513 26.5187 23.6183 25.0684 25.0686C23.6181 26.5189 21.6511 27.3337 19.6001 27.3337H8.40008C4.13341 27.3337 0.666748 23.867 0.666748 19.6003V8.40033C0.666748 6.34932 1.48151 4.38231 2.93179 2.93203C4.38207 1.48175 6.34907 0.666992 8.40008 0.666992ZM8.13341 3.33366C6.86038 3.33366 5.63948 3.83937 4.7393 4.73955C3.83913 5.63972 3.33341 6.86062 3.33341 8.13366V19.867C3.33341 22.5203 5.48008 24.667 8.13341 24.667H19.8667C21.1398 24.667 22.3607 24.1613 23.2609 23.2611C24.161 22.3609 24.6667 21.14 24.6667 19.867V8.13366C24.6667 5.48033 22.5201 3.33366 19.8667 3.33366H8.13341ZM21.0001 5.33366C21.4421 5.33366 21.866 5.50925 22.1786 5.82181C22.4912 6.13438 22.6667 6.5583 22.6667 7.00033C22.6667 7.44235 22.4912 7.86628 22.1786 8.17884C21.866 8.4914 21.4421 8.66699 21.0001 8.66699C20.5581 8.66699 20.1341 8.4914 19.8216 8.17884C19.509 7.86628 19.3334 7.44235 19.3334 7.00033C19.3334 6.5583 19.509 6.13438 19.8216 5.82181C20.1341 5.50925 20.5581 5.33366 21.0001 5.33366ZM14.0001 7.33366C15.7682 7.33366 17.4639 8.03604 18.7141 9.28628C19.9644 10.5365 20.6667 12.2322 20.6667 14.0003C20.6667 15.7684 19.9644 17.4641 18.7141 18.7144C17.4639 19.9646 15.7682 20.667 14.0001 20.667C12.232 20.667 10.5363 19.9646 9.28604 18.7144C8.03579 17.4641 7.33342 15.7684 7.33342 14.0003C7.33342 12.2322 8.03579 10.5365 9.28604 9.28628C10.5363 8.03604 12.232 7.33366 14.0001 7.33366ZM14.0001 10.0003C12.9392 10.0003 11.9218 10.4218 11.1717 11.1719C10.4215 11.922 10.0001 12.9395 10.0001 14.0003C10.0001 15.0612 10.4215 16.0786 11.1717 16.8288C11.9218 17.5789 12.9392 18.0003 14.0001 18.0003C15.0609 18.0003 16.0784 17.5789 16.8285 16.8288C17.5787 16.0786 18.0001 15.0612 18.0001 14.0003C18.0001 12.9395 17.5787 11.922 16.8285 11.1719C16.0784 10.4218 15.0609 10.0003 14.0001 10.0003Z" fill="white"/>
</svg>
