<svg viewBox="0 0 278 45" fill="none" xmlns="http://www.w3.org/2000/svg">
<path d="M19.5413 25.1384C19.5413 30.5095 15.1672 34.8188 9.77141 34.8188C4.37564 34.8188 -0.0940176 30.5087 0.00150954 25.1384C0.0925844 20.0185 4.84787 14.7341 7.68972 12.0267C8.86292 10.9091 10.6559 10.9372 11.8074 12.0773C14.6706 14.9119 19.5413 20.4264 19.5413 25.1384Z" fill="white"/>
<path d="M29.0583 13.5455H33.6094L38.4163 25.2727H38.6208L43.4276 13.5455H47.9788V31H44.3992V19.6392H44.2543L39.7373 30.9148H37.2998L32.7827 19.5966H32.6379V31H29.0583V13.5455ZM56.8658 31.2557C55.542 31.2557 54.3971 30.9744 53.4312 30.4119C52.4709 29.8437 51.7295 29.054 51.2067 28.0426C50.684 27.0256 50.4227 25.8466 50.4227 24.5057C50.4227 23.1534 50.684 21.9716 51.2067 20.9602C51.7295 19.9432 52.4709 19.1534 53.4312 18.5909C54.3971 18.0227 55.542 17.7386 56.8658 17.7386C58.1897 17.7386 59.3317 18.0227 60.292 18.5909C61.2579 19.1534 62.0022 19.9432 62.5249 20.9602C63.0477 21.9716 63.309 23.1534 63.309 24.5057C63.309 25.8466 63.0477 27.0256 62.5249 28.0426C62.0022 29.054 61.2579 29.8437 60.292 30.4119C59.3317 30.9744 58.1897 31.2557 56.8658 31.2557ZM56.8829 28.4432C57.4852 28.4432 57.988 28.2727 58.3914 27.9318C58.7948 27.5852 59.0988 27.1136 59.3033 26.517C59.5136 25.9205 59.6187 25.2415 59.6187 24.4801C59.6187 23.7188 59.5136 23.0398 59.3033 22.4432C59.0988 21.8466 58.7948 21.375 58.3914 21.0284C57.988 20.6818 57.4852 20.5085 56.8829 20.5085C56.2749 20.5085 55.7636 20.6818 55.3488 21.0284C54.9397 21.375 54.63 21.8466 54.4198 22.4432C54.2153 23.0398 54.113 23.7188 54.113 24.4801C54.113 25.2415 54.2153 25.9205 54.4198 26.517C54.63 27.1136 54.9397 27.5852 55.3488 27.9318C55.7636 28.2727 56.2749 28.4432 56.8829 28.4432ZM69.3005 23.4318V31H65.6698V17.9091H69.13V20.2188H69.2834C69.5732 19.4574 70.059 18.8551 70.7408 18.4119C71.4227 17.9631 72.2494 17.7386 73.2209 17.7386C74.13 17.7386 74.9227 17.9375 75.5988 18.3352C76.2749 18.733 76.8005 19.3011 77.1755 20.0398C77.5505 20.7727 77.738 21.6477 77.738 22.6648V31H74.1073V23.3125C74.113 22.5114 73.9084 21.8864 73.4937 21.4375C73.0789 20.983 72.5079 20.7557 71.7806 20.7557C71.292 20.7557 70.8602 20.8608 70.4852 21.071C70.1158 21.2812 69.8261 21.5881 69.6158 21.9915C69.4113 22.3892 69.3062 22.8693 69.3005 23.4318ZM80.6677 31V13.5455H92.429V16.5881H84.358V20.7472H91.8239V23.7898H84.358V27.9574H92.4631V31H80.6677ZM98.3289 17.9091L100.732 22.4858L103.195 17.9091H106.92L103.127 24.4545L107.022 31H103.315L100.732 26.4744L98.1925 31H94.4425L98.3289 24.4545L94.5789 17.9091H98.3289ZM109.076 35.9091V17.9091H112.656V20.108H112.818C112.977 19.7557 113.207 19.3977 113.508 19.0341C113.815 18.6648 114.212 18.358 114.701 18.1136C115.195 17.8636 115.809 17.7386 116.542 17.7386C117.497 17.7386 118.377 17.9886 119.184 18.4886C119.991 18.983 120.636 19.7301 121.119 20.7301C121.602 21.7244 121.843 22.9716 121.843 24.4716C121.843 25.9318 121.607 27.1648 121.136 28.1705C120.67 29.1705 120.033 29.929 119.227 30.446C118.425 30.9574 117.528 31.2131 116.533 31.2131C115.829 31.2131 115.229 31.0966 114.735 30.8636C114.247 30.6307 113.846 30.3381 113.533 29.9858C113.221 29.6278 112.982 29.267 112.818 28.9034H112.707V35.9091H109.076ZM112.63 24.4545C112.63 25.233 112.738 25.9119 112.954 26.4915C113.17 27.071 113.482 27.5227 113.891 27.8466C114.3 28.1648 114.798 28.3239 115.383 28.3239C115.974 28.3239 116.474 28.1619 116.883 27.8381C117.292 27.5085 117.602 27.054 117.812 26.4744C118.028 25.8892 118.136 25.2159 118.136 24.4545C118.136 23.6989 118.031 23.0341 117.82 22.4602C117.61 21.8864 117.3 21.4375 116.891 21.1136C116.482 20.7898 115.979 20.6278 115.383 20.6278C114.792 20.6278 114.292 20.7841 113.883 21.0966C113.479 21.4091 113.17 21.8523 112.954 22.4261C112.738 23 112.63 23.6761 112.63 24.4545ZM130.229 31.2557C128.883 31.2557 127.724 30.983 126.752 30.4375C125.786 29.8864 125.042 29.108 124.519 28.1023C123.997 27.0909 123.735 25.8949 123.735 24.5142C123.735 23.1676 123.997 21.9858 124.519 20.9688C125.042 19.9517 125.778 19.1591 126.727 18.5909C127.681 18.0227 128.8 17.7386 130.085 17.7386C130.948 17.7386 131.752 17.8778 132.497 18.1562C133.247 18.429 133.9 18.8409 134.457 19.392C135.019 19.9432 135.457 20.6364 135.769 21.4716C136.082 22.3011 136.238 23.2727 136.238 24.3864V25.3835H125.184V23.1335H132.82C132.82 22.6108 132.707 22.1477 132.479 21.7443C132.252 21.3409 131.937 21.0256 131.533 20.7983C131.136 20.5653 130.673 20.4489 130.144 20.4489C129.593 20.4489 129.104 20.5767 128.678 20.8324C128.258 21.0824 127.928 21.4205 127.69 21.8466C127.451 22.267 127.329 22.7358 127.323 23.2528V25.392C127.323 26.0398 127.443 26.5994 127.681 27.071C127.925 27.5426 128.269 27.9062 128.712 28.1619C129.156 28.4176 129.681 28.5455 130.289 28.5455C130.693 28.5455 131.062 28.4886 131.397 28.375C131.732 28.2614 132.019 28.0909 132.258 27.8636C132.497 27.6364 132.678 27.358 132.803 27.0284L136.161 27.25C135.991 28.0568 135.641 28.7614 135.113 29.3636C134.59 29.9602 133.914 30.4261 133.085 30.7614C132.261 31.0909 131.309 31.2557 130.229 31.2557ZM138.607 31V17.9091H142.127V20.1932H142.264C142.502 19.3807 142.903 18.767 143.465 18.3523C144.028 17.9318 144.675 17.7216 145.408 17.7216C145.59 17.7216 145.786 17.733 145.997 17.7557C146.207 17.7784 146.391 17.8097 146.55 17.8494V21.071C146.38 21.0199 146.144 20.9744 145.843 20.9347C145.542 20.8949 145.266 20.875 145.016 20.875C144.482 20.875 144.005 20.9915 143.585 21.2244C143.17 21.4517 142.84 21.7699 142.596 22.179C142.357 22.5881 142.238 23.0597 142.238 23.5938V31H138.607ZM156.047 17.9091V20.6364H148.163V17.9091H156.047ZM149.953 14.7727H153.584V26.9773C153.584 27.3125 153.635 27.5739 153.737 27.7614C153.84 27.9432 153.982 28.071 154.163 28.1449C154.351 28.2187 154.567 28.2557 154.811 28.2557C154.982 28.2557 155.152 28.2415 155.323 28.2131C155.493 28.179 155.624 28.1534 155.715 28.1364L156.286 30.8381C156.104 30.8949 155.848 30.9602 155.519 31.0341C155.189 31.1136 154.788 31.1619 154.317 31.179C153.442 31.2131 152.675 31.0966 152.016 30.8295C151.362 30.5625 150.854 30.1477 150.49 29.5852C150.126 29.0227 149.948 28.3125 149.953 27.4545V14.7727ZM158.761 31V13.5455H165.648C166.972 13.5455 168.099 13.7983 169.031 14.304C169.963 14.804 170.673 15.5 171.162 16.392C171.656 17.2784 171.903 18.3011 171.903 19.4602C171.903 20.6193 171.653 21.642 171.153 22.5284C170.653 23.4148 169.929 24.1051 168.98 24.5994C168.037 25.0937 166.895 25.3409 165.554 25.3409H161.165V22.3835H164.957C165.668 22.3835 166.253 22.2614 166.713 22.017C167.179 21.767 167.526 21.4233 167.753 20.9858C167.986 20.5426 168.102 20.0341 168.102 19.4602C168.102 18.8807 167.986 18.375 167.753 17.9432C167.526 17.5057 167.179 17.1676 166.713 16.929C166.247 16.6847 165.656 16.5625 164.94 16.5625H162.452V31H158.761ZM174.232 31V17.9091H177.752V20.1932H177.889C178.127 19.3807 178.528 18.767 179.09 18.3523C179.653 17.9318 180.3 17.7216 181.033 17.7216C181.215 17.7216 181.411 17.733 181.622 17.7557C181.832 17.7784 182.016 17.8097 182.175 17.8494V21.071C182.005 21.0199 181.769 20.9744 181.468 20.9347C181.167 20.8949 180.891 20.875 180.641 20.875C180.107 20.875 179.63 20.9915 179.21 21.2244C178.795 21.4517 178.465 21.7699 178.221 22.179C177.982 22.5881 177.863 23.0597 177.863 23.5938V31H174.232ZM189.358 31.2557C188.034 31.2557 186.889 30.9744 185.923 30.4119C184.963 29.8437 184.222 29.054 183.699 28.0426C183.176 27.0256 182.915 25.8466 182.915 24.5057C182.915 23.1534 183.176 21.9716 183.699 20.9602C184.222 19.9432 184.963 19.1534 185.923 18.5909C186.889 18.0227 188.034 17.7386 189.358 17.7386C190.682 17.7386 191.824 18.0227 192.784 18.5909C193.75 19.1534 194.494 19.9432 195.017 20.9602C195.54 21.9716 195.801 23.1534 195.801 24.5057C195.801 25.8466 195.54 27.0256 195.017 28.0426C194.494 29.054 193.75 29.8437 192.784 30.4119C191.824 30.9744 190.682 31.2557 189.358 31.2557ZM189.375 28.4432C189.977 28.4432 190.48 28.2727 190.884 27.9318C191.287 27.5852 191.591 27.1136 191.796 26.517C192.006 25.9205 192.111 25.2415 192.111 24.4801C192.111 23.7188 192.006 23.0398 191.796 22.4432C191.591 21.8466 191.287 21.375 190.884 21.0284C190.48 20.6818 189.977 20.5085 189.375 20.5085C188.767 20.5085 188.256 20.6818 187.841 21.0284C187.432 21.375 187.122 21.8466 186.912 22.4432C186.707 23.0398 186.605 23.7188 186.605 24.4801C186.605 25.2415 186.707 25.9205 186.912 26.517C187.122 27.1136 187.432 27.5852 187.841 27.9318C188.256 28.2727 188.767 28.4432 189.375 28.4432ZM198.162 35.9091V17.9091H201.742V20.108H201.903C202.063 19.7557 202.293 19.3977 202.594 19.0341C202.901 18.6648 203.298 18.358 203.787 18.1136C204.281 17.8636 204.895 17.7386 205.628 17.7386C206.582 17.7386 207.463 17.9886 208.27 18.4886C209.077 18.983 209.722 19.7301 210.205 20.7301C210.688 21.7244 210.929 22.9716 210.929 24.4716C210.929 25.9318 210.693 27.1648 210.222 28.1705C209.756 29.1705 209.119 29.929 208.313 30.446C207.511 30.9574 206.614 31.2131 205.619 31.2131C204.915 31.2131 204.315 31.0966 203.821 30.8636C203.332 30.6307 202.932 30.3381 202.619 29.9858C202.307 29.6278 202.068 29.267 201.903 28.9034H201.793V35.9091H198.162ZM201.716 24.4545C201.716 25.233 201.824 25.9119 202.04 26.4915C202.256 27.071 202.568 27.5227 202.977 27.8466C203.386 28.1648 203.884 28.3239 204.469 28.3239C205.06 28.3239 205.56 28.1619 205.969 27.8381C206.378 27.5085 206.688 27.054 206.898 26.4744C207.114 25.8892 207.222 25.2159 207.222 24.4545C207.222 23.6989 207.117 23.0341 206.906 22.4602C206.696 21.8864 206.386 21.4375 205.977 21.1136C205.568 20.7898 205.065 20.6278 204.469 20.6278C203.878 20.6278 203.378 20.7841 202.969 21.0966C202.565 21.4091 202.256 21.8523 202.04 22.4261C201.824 23 201.716 23.6761 201.716 24.4545ZM213.349 31V17.9091H216.869V20.1932H217.006C217.244 19.3807 217.645 18.767 218.207 18.3523C218.77 17.9318 219.418 17.7216 220.151 17.7216C220.332 17.7216 220.528 17.733 220.739 17.7557C220.949 17.7784 221.134 17.8097 221.293 17.8494V21.071C221.122 21.0199 220.886 20.9744 220.585 20.9347C220.284 20.8949 220.009 20.875 219.759 20.875C219.224 20.875 218.747 20.9915 218.327 21.2244C217.912 21.4517 217.582 21.7699 217.338 22.179C217.099 22.5881 216.98 23.0597 216.98 23.5938V31H213.349ZM228.526 31.2557C227.18 31.2557 226.021 30.983 225.049 30.4375C224.083 29.8864 223.339 29.108 222.816 28.1023C222.293 27.0909 222.032 25.8949 222.032 24.5142C222.032 23.1676 222.293 21.9858 222.816 20.9688C223.339 19.9517 224.075 19.1591 225.024 18.5909C225.978 18.0227 227.097 17.7386 228.381 17.7386C229.245 17.7386 230.049 17.8778 230.793 18.1562C231.543 18.429 232.197 18.8409 232.754 19.392C233.316 19.9432 233.754 20.6364 234.066 21.4716C234.379 22.3011 234.535 23.2727 234.535 24.3864V25.3835H223.481V23.1335H231.117C231.117 22.6108 231.004 22.1477 230.776 21.7443C230.549 21.3409 230.234 21.0256 229.83 20.7983C229.433 20.5653 228.97 20.4489 228.441 20.4489C227.89 20.4489 227.401 20.5767 226.975 20.8324C226.555 21.0824 226.225 21.4205 225.987 21.8466C225.748 22.267 225.626 22.7358 225.62 23.2528V25.392C225.62 26.0398 225.739 26.5994 225.978 27.071C226.222 27.5426 226.566 27.9062 227.009 28.1619C227.452 28.4176 227.978 28.5455 228.586 28.5455C228.989 28.5455 229.359 28.4886 229.694 28.375C230.029 28.2614 230.316 28.0909 230.555 27.8636C230.793 27.6364 230.975 27.358 231.1 27.0284L234.458 27.25C234.288 28.0568 233.938 28.7614 233.41 29.3636C232.887 29.9602 232.211 30.4261 231.381 30.7614C230.558 31.0909 229.606 31.2557 228.526 31.2557ZM243.867 17.9091V20.6364H235.984V17.9091H243.867ZM237.774 14.7727H241.404V26.9773C241.404 27.3125 241.455 27.5739 241.558 27.7614C241.66 27.9432 241.802 28.071 241.984 28.1449C242.171 28.2187 242.387 28.2557 242.631 28.2557C242.802 28.2557 242.972 28.2415 243.143 28.2131C243.313 28.179 243.444 28.1534 243.535 28.1364L244.106 30.8381C243.924 30.8949 243.668 30.9602 243.339 31.0341C243.009 31.1136 242.609 31.1619 242.137 31.179C241.262 31.2131 240.495 31.0966 239.836 30.8295C239.183 30.5625 238.674 30.1477 238.31 29.5852C237.947 29.0227 237.768 28.3125 237.774 27.4545V14.7727ZM252.058 31.2557C250.711 31.2557 249.552 30.983 248.58 30.4375C247.614 29.8864 246.87 29.108 246.347 28.1023C245.825 27.0909 245.563 25.8949 245.563 24.5142C245.563 23.1676 245.825 21.9858 246.347 20.9688C246.87 19.9517 247.606 19.1591 248.555 18.5909C249.509 18.0227 250.629 17.7386 251.913 17.7386C252.776 17.7386 253.58 17.8778 254.325 18.1562C255.075 18.429 255.728 18.8409 256.285 19.392C256.847 19.9432 257.285 20.6364 257.597 21.4716C257.91 22.3011 258.066 23.2727 258.066 24.3864V25.3835H247.012V23.1335H254.649C254.649 22.6108 254.535 22.1477 254.308 21.7443C254.08 21.3409 253.765 21.0256 253.362 20.7983C252.964 20.5653 252.501 20.4489 251.972 20.4489C251.421 20.4489 250.933 20.5767 250.506 20.8324C250.086 21.0824 249.756 21.4205 249.518 21.8466C249.279 22.267 249.157 22.7358 249.151 23.2528V25.392C249.151 26.0398 249.271 26.5994 249.509 27.071C249.754 27.5426 250.097 27.9062 250.541 28.1619C250.984 28.4176 251.509 28.5455 252.117 28.5455C252.521 28.5455 252.89 28.4886 253.225 28.375C253.56 28.2614 253.847 28.0909 254.086 27.8636C254.325 27.6364 254.506 27.358 254.631 27.0284L257.989 27.25C257.819 28.0568 257.47 28.7614 256.941 29.3636C256.418 29.9602 255.742 30.4261 254.913 30.7614C254.089 31.0909 253.137 31.2557 252.058 31.2557ZM250.524 16.2216L252.33 12.3438H255.688L253.089 16.2216H250.524Z" fill="white"/>
</svg>
